<mxfile host="Electron" agent="Mozilla/5.0 (X11; Linux x86_64) AppleWebKit/537.36 (KHTML, like Gecko) draw.io/25.0.2 Chrome/128.0.6613.186 Electron/32.2.7 Safari/537.36" version="25.0.2">
  <diagram name="Page-1" id="JRqGjEJRZlbZhzDeMpyl">
    <mxGraphModel dx="1988" dy="1893" grid="1" gridSize="10" guides="1" tooltips="1" connect="1" arrows="1" fold="1" page="1" pageScale="1" pageWidth="850" pageHeight="1100" math="0" shadow="0">
      <root>
        <mxCell id="0" />
        <mxCell id="1" parent="0" />
        <mxCell id="rfHGCj1vnWynxR6-UIqY-43" value="" style="whiteSpace=wrap;html=1;aspect=fixed;fillColor=#ffe6cc;strokeColor=#d79b00;" vertex="1" parent="1">
          <mxGeometry x="450" y="390" width="210" height="210" as="geometry" />
        </mxCell>
        <mxCell id="rfHGCj1vnWynxR6-UIqY-2" value="" style="rounded=0;whiteSpace=wrap;html=1;fillColor=#dae8fc;strokeColor=#6c8ebf;" vertex="1" parent="1">
          <mxGeometry x="690" y="40" width="390" height="1020" as="geometry" />
        </mxCell>
        <mxCell id="rfHGCj1vnWynxR6-UIqY-34" style="edgeStyle=none;rounded=0;orthogonalLoop=1;jettySize=auto;html=1;exitX=0.75;exitY=0;exitDx=0;exitDy=0;entryX=0;entryY=0.75;entryDx=0;entryDy=0;" edge="1" parent="1" source="rfHGCj1vnWynxR6-UIqY-1" target="rfHGCj1vnWynxR6-UIqY-11">
          <mxGeometry relative="1" as="geometry" />
        </mxCell>
        <mxCell id="rfHGCj1vnWynxR6-UIqY-36" value="ON_CONNECT" style="edgeLabel;html=1;align=center;verticalAlign=middle;resizable=0;points=[];" vertex="1" connectable="0" parent="rfHGCj1vnWynxR6-UIqY-34">
          <mxGeometry x="-0.1901" y="2" relative="1" as="geometry">
            <mxPoint as="offset" />
          </mxGeometry>
        </mxCell>
        <mxCell id="rfHGCj1vnWynxR6-UIqY-1" value="" style="rounded=0;whiteSpace=wrap;html=1;fillColor=#f8cecc;strokeColor=#b85450;" vertex="1" parent="1">
          <mxGeometry x="30" y="40" width="390" height="1020" as="geometry" />
        </mxCell>
        <mxCell id="rfHGCj1vnWynxR6-UIqY-44" value="" style="edgeStyle=none;rounded=0;orthogonalLoop=1;jettySize=auto;html=1;" edge="1" parent="1" source="rfHGCj1vnWynxR6-UIqY-2" target="rfHGCj1vnWynxR6-UIqY-43">
          <mxGeometry relative="1" as="geometry" />
        </mxCell>
        <mxCell id="rfHGCj1vnWynxR6-UIqY-49" value="EVERY_FRAME" style="edgeLabel;html=1;align=center;verticalAlign=middle;resizable=0;points=[];" vertex="1" connectable="0" parent="rfHGCj1vnWynxR6-UIqY-44">
          <mxGeometry x="-0.296" relative="1" as="geometry">
            <mxPoint x="1" y="-21" as="offset" />
          </mxGeometry>
        </mxCell>
        <mxCell id="rfHGCj1vnWynxR6-UIqY-3" value="Server" style="text;html=1;align=center;verticalAlign=middle;whiteSpace=wrap;rounded=0;fontSize=60;" vertex="1" parent="1">
          <mxGeometry x="180" y="-20" width="60" height="30" as="geometry" />
        </mxCell>
        <mxCell id="rfHGCj1vnWynxR6-UIqY-4" value="Client" style="text;html=1;align=center;verticalAlign=middle;whiteSpace=wrap;rounded=0;fontSize=60;" vertex="1" parent="1">
          <mxGeometry x="850" y="-30" width="60" height="30" as="geometry" />
        </mxCell>
        <mxCell id="rfHGCj1vnWynxR6-UIqY-7" value="&lt;h1 style=&quot;margin-top: 0px;&quot;&gt;Legend&lt;/h1&gt;&lt;div&gt;Green - Var to store&lt;/div&gt;&lt;div&gt;Purple - Methods&lt;/div&gt;&lt;div&gt;&lt;br&gt;&lt;/div&gt;&lt;div&gt;&lt;br&gt;&lt;/div&gt;" style="text;html=1;whiteSpace=wrap;overflow=hidden;rounded=0;" vertex="1" parent="1">
          <mxGeometry x="-350" y="110" width="180" height="120" as="geometry" />
        </mxCell>
        <mxCell id="rfHGCj1vnWynxR6-UIqY-35" style="edgeStyle=none;rounded=0;orthogonalLoop=1;jettySize=auto;html=1;exitX=1;exitY=0.75;exitDx=0;exitDy=0;entryX=0.25;entryY=0;entryDx=0;entryDy=0;" edge="1" parent="1" source="rfHGCj1vnWynxR6-UIqY-11" target="rfHGCj1vnWynxR6-UIqY-2">
          <mxGeometry relative="1" as="geometry" />
        </mxCell>
        <mxCell id="rfHGCj1vnWynxR6-UIqY-11" value="" style="whiteSpace=wrap;html=1;aspect=fixed;fillColor=#ffe6cc;strokeColor=#d79b00;" vertex="1" parent="1">
          <mxGeometry x="450" y="-210" width="250" height="250" as="geometry" />
        </mxCell>
        <mxCell id="rfHGCj1vnWynxR6-UIqY-12" value="INIT_PACKET" style="text;html=1;align=center;verticalAlign=middle;whiteSpace=wrap;rounded=0;" vertex="1" parent="1">
          <mxGeometry x="520" y="-250" width="60" height="30" as="geometry" />
        </mxCell>
        <mxCell id="rfHGCj1vnWynxR6-UIqY-25" value="&lt;font&gt;SET_CLIENT_ID&lt;/font&gt;" style="rhombus;whiteSpace=wrap;html=1;fontSize=3;fillColor=#d5e8d4;strokeColor=#82b366;" vertex="1" parent="1">
          <mxGeometry x="470" width="40" height="40" as="geometry" />
        </mxCell>
        <mxCell id="rfHGCj1vnWynxR6-UIqY-26" value="CREATE_DATA_VALUE" style="rhombus;whiteSpace=wrap;html=1;fontSize=3;fillColor=#d5e8d4;strokeColor=#82b366;" vertex="1" parent="1">
          <mxGeometry x="570" y="-100" width="40" height="40" as="geometry" />
        </mxCell>
        <mxCell id="rfHGCj1vnWynxR6-UIqY-27" value="etc..." style="text;html=1;align=center;verticalAlign=middle;whiteSpace=wrap;rounded=0;" vertex="1" parent="1">
          <mxGeometry x="600" y="-95" width="60" height="30" as="geometry" />
        </mxCell>
        <mxCell id="rfHGCj1vnWynxR6-UIqY-28" value="&lt;font&gt;CREATE_DATA_VALUE&lt;/font&gt;" style="rhombus;whiteSpace=wrap;html=1;fontSize=3;fillColor=#d5e8d4;strokeColor=#82b366;" vertex="1" parent="1">
          <mxGeometry x="470" y="-100" width="40" height="40" as="geometry" />
        </mxCell>
        <mxCell id="rfHGCj1vnWynxR6-UIqY-29" value="CREATE_DATA_VALUE" style="rhombus;whiteSpace=wrap;html=1;fontSize=3;fillColor=#d5e8d4;strokeColor=#82b366;" vertex="1" parent="1">
          <mxGeometry x="520" y="-100" width="40" height="40" as="geometry" />
        </mxCell>
        <mxCell id="rfHGCj1vnWynxR6-UIqY-37" value="" style="whiteSpace=wrap;html=1;aspect=fixed;fillColor=#ffe6cc;strokeColor=#d79b00;" vertex="1" parent="1">
          <mxGeometry x="460" y="90" width="210" height="210" as="geometry" />
        </mxCell>
        <mxCell id="rfHGCj1vnWynxR6-UIqY-39" value="DATA_PACKET" style="text;html=1;align=center;verticalAlign=middle;whiteSpace=wrap;rounded=0;" vertex="1" parent="1">
          <mxGeometry x="535" y="60" width="60" height="30" as="geometry" />
        </mxCell>
        <mxCell id="rfHGCj1vnWynxR6-UIqY-40" value="" style="endArrow=classic;html=1;rounded=0;entryX=0;entryY=0.5;entryDx=0;entryDy=0;" edge="1" parent="1" target="rfHGCj1vnWynxR6-UIqY-37">
          <mxGeometry width="50" height="50" relative="1" as="geometry">
            <mxPoint x="420" y="200" as="sourcePoint" />
            <mxPoint x="470" y="150" as="targetPoint" />
          </mxGeometry>
        </mxCell>
        <mxCell id="rfHGCj1vnWynxR6-UIqY-48" value="EVERY_FRAME" style="edgeLabel;html=1;align=center;verticalAlign=middle;resizable=0;points=[];" vertex="1" connectable="0" parent="rfHGCj1vnWynxR6-UIqY-40">
          <mxGeometry x="-0.3771" y="1" relative="1" as="geometry">
            <mxPoint x="8" y="23" as="offset" />
          </mxGeometry>
        </mxCell>
        <mxCell id="rfHGCj1vnWynxR6-UIqY-41" value="&lt;font&gt;MODIFY_DATA_VALUE&lt;/font&gt;" style="rhombus;whiteSpace=wrap;html=1;fontSize=3;fillColor=#d5e8d4;strokeColor=#82b366;" vertex="1" parent="1">
          <mxGeometry x="470" y="100" width="40" height="40" as="geometry" />
        </mxCell>
        <mxCell id="rfHGCj1vnWynxR6-UIqY-42" style="edgeStyle=none;rounded=0;orthogonalLoop=1;jettySize=auto;html=1;entryX=-0.006;entryY=0.152;entryDx=0;entryDy=0;entryPerimeter=0;" edge="1" parent="1" source="rfHGCj1vnWynxR6-UIqY-37" target="rfHGCj1vnWynxR6-UIqY-2">
          <mxGeometry relative="1" as="geometry" />
        </mxCell>
        <mxCell id="rfHGCj1vnWynxR6-UIqY-45" value="" style="edgeStyle=none;rounded=0;orthogonalLoop=1;jettySize=auto;html=1;" edge="1" parent="1" source="rfHGCj1vnWynxR6-UIqY-43" target="rfHGCj1vnWynxR6-UIqY-1">
          <mxGeometry relative="1" as="geometry" />
        </mxCell>
        <mxCell id="rfHGCj1vnWynxR6-UIqY-46" value="INPUT_PACKET" style="text;html=1;align=center;verticalAlign=middle;whiteSpace=wrap;rounded=0;" vertex="1" parent="1">
          <mxGeometry x="535" y="350" width="60" height="30" as="geometry" />
        </mxCell>
        <mxCell id="rfHGCj1vnWynxR6-UIqY-50" value="&lt;font&gt;MODIFY_DATA_VALUE&lt;/font&gt;" style="rhombus;whiteSpace=wrap;html=1;fontSize=3;fillColor=#d5e8d4;strokeColor=#82b366;" vertex="1" parent="1">
          <mxGeometry x="520" y="100" width="40" height="40" as="geometry" />
        </mxCell>
        <mxCell id="rfHGCj1vnWynxR6-UIqY-51" value="&lt;font&gt;MODIFY_DATA_VALUE&lt;/font&gt;" style="rhombus;whiteSpace=wrap;html=1;fontSize=3;fillColor=#d5e8d4;strokeColor=#82b366;" vertex="1" parent="1">
          <mxGeometry x="570" y="100" width="40" height="40" as="geometry" />
        </mxCell>
        <mxCell id="rfHGCj1vnWynxR6-UIqY-52" value="etc..." style="text;html=1;align=center;verticalAlign=middle;whiteSpace=wrap;rounded=0;" vertex="1" parent="1">
          <mxGeometry x="620" y="105" width="60" height="30" as="geometry" />
        </mxCell>
        <mxCell id="rfHGCj1vnWynxR6-UIqY-54" value="&lt;font&gt;INPUT_VALUE&lt;/font&gt;" style="rhombus;whiteSpace=wrap;html=1;fontSize=3;fillColor=#d5e8d4;strokeColor=#82b366;" vertex="1" parent="1">
          <mxGeometry x="460" y="400" width="40" height="40" as="geometry" />
        </mxCell>
        <mxCell id="rfHGCj1vnWynxR6-UIqY-55" value="&lt;font&gt;INPUT_VALUE&lt;/font&gt;" style="rhombus;whiteSpace=wrap;html=1;fontSize=3;fillColor=#d5e8d4;strokeColor=#82b366;" vertex="1" parent="1">
          <mxGeometry x="510" y="400" width="40" height="40" as="geometry" />
        </mxCell>
        <mxCell id="rfHGCj1vnWynxR6-UIqY-56" value="&lt;font&gt;INPUT_VALUE&lt;/font&gt;" style="rhombus;whiteSpace=wrap;html=1;fontSize=3;fillColor=#d5e8d4;strokeColor=#82b366;" vertex="1" parent="1">
          <mxGeometry x="560" y="400" width="40" height="40" as="geometry" />
        </mxCell>
        <mxCell id="rfHGCj1vnWynxR6-UIqY-57" value="etc..." style="text;html=1;align=center;verticalAlign=middle;whiteSpace=wrap;rounded=0;" vertex="1" parent="1">
          <mxGeometry x="600" y="405" width="60" height="30" as="geometry" />
        </mxCell>
        <mxCell id="rfHGCj1vnWynxR6-UIqY-58" value="CREATE_INPUT_VALUE" style="rhombus;whiteSpace=wrap;html=1;fontSize=3;fillColor=#d5e8d4;strokeColor=#82b366;" vertex="1" parent="1">
          <mxGeometry x="570" y="-50" width="40" height="40" as="geometry" />
        </mxCell>
        <mxCell id="rfHGCj1vnWynxR6-UIqY-59" value="etc..." style="text;html=1;align=center;verticalAlign=middle;whiteSpace=wrap;rounded=0;" vertex="1" parent="1">
          <mxGeometry x="600" y="-45" width="60" height="30" as="geometry" />
        </mxCell>
        <mxCell id="rfHGCj1vnWynxR6-UIqY-60" value="&lt;font&gt;CREATE_INPUT_VALUE&lt;/font&gt;" style="rhombus;whiteSpace=wrap;html=1;fontSize=3;fillColor=#d5e8d4;strokeColor=#82b366;" vertex="1" parent="1">
          <mxGeometry x="470" y="-50" width="40" height="40" as="geometry" />
        </mxCell>
        <mxCell id="rfHGCj1vnWynxR6-UIqY-61" value="CREATE_INPUT_VALUE" style="rhombus;whiteSpace=wrap;html=1;fontSize=3;fillColor=#d5e8d4;strokeColor=#82b366;" vertex="1" parent="1">
          <mxGeometry x="520" y="-50" width="40" height="40" as="geometry" />
        </mxCell>
        <mxCell id="rfHGCj1vnWynxR6-UIqY-63" value="Inputs" style="rounded=0;whiteSpace=wrap;html=1;fillColor=#d5e8d4;strokeColor=#82b366;" vertex="1" parent="1">
          <mxGeometry x="50" y="80" width="120" height="60" as="geometry" />
        </mxCell>
        <mxCell id="rfHGCj1vnWynxR6-UIqY-64" value="Data" style="rounded=0;whiteSpace=wrap;html=1;fillColor=#d5e8d4;strokeColor=#82b366;" vertex="1" parent="1">
          <mxGeometry x="190" y="80" width="120" height="60" as="geometry" />
        </mxCell>
        <mxCell id="rfHGCj1vnWynxR6-UIqY-67" value="Handlers for each input type" style="shape=parallelogram;perimeter=parallelogramPerimeter;whiteSpace=wrap;html=1;fixedSize=1;fillColor=#e1d5e7;strokeColor=#9673a6;" vertex="1" parent="1">
          <mxGeometry x="50" y="170" width="120" height="60" as="geometry" />
        </mxCell>
      </root>
    </mxGraphModel>
  </diagram>
</mxfile>
